<svg width="640" height="420" viewBox="0 0 640 420" fill="none" xmlns="http://www.w3.org/2000/svg">
  <rect width="640" height="420" rx="28" fill="#EDF6F1"/>
  <circle cx="538" cy="90" r="58" fill="#D5E9DE"/>
  <circle cx="508" cy="102" r="22" fill="#A6CDB9"/>
  <path d="M96 306C96 258.9 134.9 220 182 220H398C441.1 220 478.6 248.7 488.8 290.6L494 312H96V306Z" fill="#2F6B57"/>
  <rect x="140" y="248" width="146" height="62" rx="12" fill="#9FD0B8"/>
  <rect x="300" y="248" width="146" height="62" rx="12" fill="#9FD0B8"/>
  <circle cx="184" cy="328" r="30" fill="#163026"/>
  <circle cx="418" cy="328" r="30" fill="#163026"/>
  <circle cx="184" cy="328" r="14" fill="#CDE4D7"/>
  <circle cx="418" cy="328" r="14" fill="#CDE4D7"/>
  <circle cx="162" cy="176" r="28" fill="#B6D8C6"/>
  <rect x="146" y="204" width="32" height="38" rx="10" fill="#6EA58D"/>
  <circle cx="476" cy="176" r="28" fill="#B6D8C6"/>
  <rect x="460" y="204" width="32" height="38" rx="10" fill="#6EA58D"/>
  <path d="M226 150C252 124 286 110 320 110C354 110 388 124 414 150" stroke="#2F6B57" stroke-width="10" stroke-linecap="round"/>
  <circle cx="320" cy="112" r="16" fill="#2F6B57"/>
</svg>
