<svg width="640" height="420" viewBox="0 0 640 420" fill="none" xmlns="http://www.w3.org/2000/svg">
  <rect width="640" height="420" rx="28" fill="#EEF7F2"/>
  <circle cx="150" cy="120" r="62" fill="#D6EBDD"/>
  <circle cx="510" cy="304" r="54" fill="#D6EBDD"/>
  <path d="M122 240C172 170 248 130 320 130C392 130 468 170 518 240" stroke="#2F6B57" stroke-width="14" stroke-linecap="round"/>
  <path d="M486 214L526 240L486 266" stroke="#2F6B57" stroke-width="12" stroke-linecap="round" stroke-linejoin="round"/>
  <rect x="174" y="248" width="292" height="110" rx="20" fill="#FFFFFF" stroke="#C9DED1" stroke-width="4"/>
  <circle cx="232" cy="302" r="30" fill="#A9CFBC"/>
  <circle cx="320" cy="302" r="30" fill="#7FB195"/>
  <circle cx="408" cy="302" r="30" fill="#5F8D76"/>
  <path d="M224 302H240" stroke="#1F4B3D" stroke-width="6" stroke-linecap="round"/>
  <path d="M312 302H328" stroke="#EAF3EE" stroke-width="6" stroke-linecap="round"/>
  <path d="M404 294H412M408 290V314" stroke="#EAF3EE" stroke-width="5" stroke-linecap="round"/>
  <rect x="272" y="188" width="96" height="34" rx="17" fill="#2F6B57"/>
  <text x="320" y="211" text-anchor="middle" fill="#EAF3EE" font-size="16" font-family="Arial, sans-serif" font-weight="700">PAYLAS</text>
</svg>
