<svg width="920" height="240" viewBox="0 0 920 240" fill="none" xmlns="http://www.w3.org/2000/svg">
  <defs>
    <linearGradient id="asphaltCurve" x1="55" y1="84" x2="131" y2="170" gradientUnits="userSpaceOnUse">
      <stop stop-color="#5F6764"/>
      <stop offset="1" stop-color="#2F3633"/>
    </linearGradient>
  </defs>
  <rect x="0" y="0" width="920" height="240" rx="24" fill="#F3F6F4"/>
  <g transform="translate(139 16)">
    <rect x="0" y="0" width="190" height="190" rx="40" fill="#EAF3EE"/>
    <path d="M95 28C54 28 22 60 22 101C22 158 95 205 95 205C95 205 168 158 168 101C168 60 136 28 95 28Z" stroke="#2F6B57" stroke-width="12"/>

    <path d="M95 164C95 147 95 132 95 118C95 104 82 92 70 84M95 118C95 104 108 92 120 84" stroke="url(#asphaltCurve)" stroke-width="21" stroke-linecap="round" stroke-linejoin="round"/>
    <path d="M95 164C95 147 95 132 95 118C95 104 82 92 70 84M95 118C95 104 108 92 120 84" stroke="#2E3532" stroke-width="15" stroke-linecap="round" stroke-linejoin="round"/>
    <path d="M95 164C95 147 95 132 95 118C95 104 82 92 70 84M95 118C95 104 108 92 120 84" stroke="#D6DDD8" stroke-width="3.1" stroke-linecap="round" stroke-linejoin="round" stroke-dasharray="4 9"/>
    <path d="M91 153L93 149M99 147L101 143M84 136L86 133M106 136L108 133M76 126L78 123M114 126L116 123" stroke="#717A76" stroke-width="1.25" stroke-linecap="round" opacity="0.40"/>
    <rect x="86" y="156" width="18" height="6.5" rx="2.6" fill="#E8EFEB"/>
    <path d="M89 156L93 151.5H97L101 156Z" fill="#E8EFEB"/>
    <circle cx="90.5" cy="163" r="1.4" fill="#2E3532"/>
    <circle cx="100.5" cy="163" r="1.4" fill="#2E3532"/>

    <path d="M95 56C105 63 107 76 95 90C83 76 85 63 95 56Z" fill="#92C4A4"/>
    <path d="M95 61V87" stroke="#4E8A69" stroke-width="2.1" stroke-linecap="round"/>
    <path d="M95 69L102 65M95 76L103 72M95 69L88 65M95 76L87 72" stroke="#5F9977" stroke-width="1.2" stroke-linecap="round"/>
  </g>

  <text x="571" y="122" text-anchor="middle" fill="#1F4B3D" font-family="Poppins, Segoe UI, sans-serif" font-size="94" font-weight="700">Yoliva</text>
  <text x="571" y="164" text-anchor="middle" fill="#5F8D76" font-family="Poppins, Segoe UI, sans-serif" font-size="28" font-weight="500">Smoother curved split geometry</text>
</svg>
